<svg xmlns="http://www.w3.org/2000/svg" xmlns:xlink="http://www.w3.org/1999/xlink" width="24" height="16"><defs><path id="a" d="M665.56 4904.98h-5.13v1.24h5.13zm-4.62 6.23c.04-.6.25-1.08.62-1.43.38-.35.87-.52 1.47-.52 1.22 0 1.89.65 2.01 1.95zm.58 3.31a2.4 2.4 0 0 1-.58-1.72h6.61l.02-.47c0-.92-.17-1.75-.5-2.5a4.21 4.21 0 0 0-3.96-2.47c-1.38 0-2.5.46-3.38 1.38a4.84 4.84 0 0 0-1.3 3.47c0 1.44.41 2.6 1.26 3.48a4.52 4.52 0 0 0 3.42 1.33c2.2 0 3.62-1.03 4.3-3.08h-2.23c-.11.36-.37.66-.76.87-.4.21-.8.32-1.23.32-.73 0-1.29-.2-1.67-.6zm-11.74-3.38h3.04c1.33 0 2 .6 2 1.81 0 1.12-.7 1.68-2.06 1.68h-2.98zm0-4.86h2.61c1.28 0 1.91.48 1.91 1.45 0 .51-.15.9-.45 1.14-.3.24-.72.37-1.25.37h-2.82zm-2.78 10.5h6.14c.47 0 .91-.04 1.34-.13.43-.09.84-.23 1.22-.42.38-.2.71-.44.99-.72.28-.28.5-.62.66-1.04.16-.4.25-.87.25-1.37 0-.8-.2-1.5-.59-2.05a3.01 3.01 0 0 0-1.72-1.15c1.15-.55 1.72-1.43 1.72-2.64 0-.61-.1-1.13-.31-1.55a2.24 2.24 0 0 0-.9-.97c-.4-.22-.82-.38-1.28-.48-.45-.1-.97-.14-1.55-.14H647z"/></defs><use fill="#0065f8" xlink:href="#a" transform="translate(-645 -4903)"/></svg>