<svg xmlns="http://www.w3.org/2000/svg" xmlns:xlink="http://www.w3.org/1999/xlink" width="31" height="27"><defs><path id="a" d="M400.57 799c-.58 0-1.08-.21-1.5-.64a2.06 2.06 0 0 1-.64-1.5c0-.58.21-1.09.63-1.51.43-.42.93-.64 1.51-.64s1.08.22 1.5.64c.43.42.64.93.64 1.5 0 .59-.2 1.09-.63 1.51-.43.43-.93.64-1.5.64zm-4.28-11.22a.5.5 0 0 1 .15-.37l3.26-3.26a.5.5 0 0 1 .37-.15h2.64v4.29h-6.42zM415.57 799c-.58 0-1.08-.21-1.5-.64a2.06 2.06 0 0 1-.64-1.5c0-.58.21-1.09.63-1.51.43-.42.93-.64 1.51-.64s1.08.22 1.5.64c.43.42.64.93.64 1.5 0 .59-.2 1.09-.63 1.51-.43.43-.93.64-1.5.64zm6.11-21.11a1.03 1.03 0 0 0-.75-.32h-17.14c-.3 0-.55.1-.76.32-.21.21-.32.46-.32.75v3.22h-2.67c-.3 0-.63.07-.98.21-.36.15-.64.33-.85.54l-3.31 3.32a3.04 3.04 0 0 0-.61 1.01c-.06.15-.1.36-.11.62a15.65 15.65 0 0 0-.05 1.21l.01.59v5.35c-.29 0-.54.11-.75.32-.21.21-.32.47-.32.76 0 .16.02.31.07.44.04.13.12.23.22.3l.28.2c.08.05.21.09.4.1l.37.04a4.74 4.74 0 0 0 .8-.01h1.08c0 1.18.41 2.19 1.25 3.03a4.13 4.13 0 0 0 3.03 1.25c1.18 0 2.2-.42 3.03-1.25a4.13 4.13 0 0 0 1.26-3.03h6.43c0 1.18.41 2.19 1.25 3.03a4.13 4.13 0 0 0 3.03 1.25c1.18 0 2.2-.42 3.03-1.25a4.13 4.13 0 0 0 1.26-3.03 25.88 25.88 0 0 1 .8 0l.38-.03a.92.92 0 0 0 .4-.1l.27-.2c.1-.07.18-.17.22-.3.05-.13.07-.28.07-.44v-17.15c0-.29-.1-.54-.32-.75z"/></defs><use fill="#252525" xlink:href="#a" transform="translate(-392 -776)"/></svg>