<svg xmlns="http://www.w3.org/2000/svg" xmlns:xlink="http://www.w3.org/1999/xlink" width="19" height="19"><defs><path id="a" d="M508.71 4913.14c-.7 0-1.31-.25-1.81-.75s-.76-1.1-.76-1.82c0-.7.25-1.31.76-1.82.5-.5 1.1-.75 1.81-.75s1.32.25 1.82.75.76 1.11.76 1.82-.26 1.32-.76 1.82-1.1.75-1.82.75zm0-6.53c-1.1 0-2.03.39-2.8 1.16a3.82 3.82 0 0 0-1.15 2.8c0 1.1.38 2.03 1.15 2.8.77.77 1.7 1.16 2.8 1.16 1.1 0 2.04-.39 2.8-1.16a3.82 3.82 0 0 0 1.16-2.8c0-1.1-.38-2.03-1.15-2.8a3.82 3.82 0 0 0-2.8-1.16zm4.12-1.08c-.25 0-.47.09-.65.27a.89.89 0 0 0-.27.65c0 .26.09.47.27.66.18.18.4.27.65.27.26 0 .47-.1.66-.27.18-.19.27-.4.27-.66a.89.89 0 0 0-.27-.65.89.89 0 0 0-.66-.27zm-2.29-1.3l.97.04c.4.02.75.05 1.04.1a2.6 2.6 0 0 1 2.18 1.65c.07.2.14.43.19.72.05.28.08.63.1 1.03a38.38 38.38 0 0 1 .02 2.8 203.61 203.61 0 0 0 0 1.83c0 .24 0 .56-.02.97-.02.4-.05.75-.1 1.03-.05.29-.12.53-.19.72a2.6 2.6 0 0 1-1.47 1.47c-.19.07-.43.13-.71.18-.29.05-.63.09-1.04.1a37.35 37.35 0 0 1-2.8.03 200.3 200.3 0 0 0-1.82 0c-.24 0-.57 0-.97-.03-.4-.01-.75-.05-1.04-.1a4.02 4.02 0 0 1-.72-.18 2.6 2.6 0 0 1-1.46-1.47c-.08-.2-.14-.43-.19-.72a7.95 7.95 0 0 1-.1-1.03 36.74 36.74 0 0 1-.02-2.8 285.92 285.92 0 0 0 0-1.83c0-.24 0-.56.02-.97.02-.4.05-.75.1-1.03.05-.29.11-.52.19-.72a2.6 2.6 0 0 1 1.46-1.47c.2-.07.44-.13.72-.18.29-.05.63-.08 1.04-.1a38.75 38.75 0 0 1 2.8-.03 200.65 200.65 0 0 0 1.82 0zm4.6-.08a4.71 4.71 0 0 0-3.24-1.24c-.6-.04-1.65-.05-3.19-.05-1.53 0-2.6.01-3.18.05-1.4.06-2.47.48-3.23 1.24a4.71 4.71 0 0 0-1.25 3.24c-.03.59-.05 1.65-.05 3.18 0 1.53.02 2.6.05 3.19.07 1.39.48 2.47 1.25 3.23a4.71 4.71 0 0 0 3.23 1.25c.59.03 1.65.05 3.18.05 1.54 0 2.6-.02 3.19-.05a4.71 4.71 0 0 0 3.23-1.25 4.71 4.71 0 0 0 1.25-3.23c.03-.6.05-1.66.05-3.19s-.02-2.6-.05-3.18a4.71 4.71 0 0 0-1.25-3.24z"/></defs><use fill="#fff" xlink:href="#a" transform="translate(-499 -4901)"/></svg>