<svg xmlns="http://www.w3.org/2000/svg" xmlns:xlink="http://www.w3.org/1999/xlink" width="36" height="29"><defs><path id="a" d="M1321.46 775.43c.74 0 1.37.26 1.9.79.52.52.78 1.15.78 1.89v20.35c0 .74-.26 1.37-.78 1.9-.53.52-1.16.78-1.9.78h-26.78c-.74 0-1.37-.26-1.9-.78a2.58 2.58 0 0 1-.78-1.9v-20.35c0-.74.26-1.37.79-1.9a2.58 2.58 0 0 1 1.89-.78zm-26.78 2.14a.52.52 0 0 0-.38.16c-.1.1-.16.23-.16.38v3.75H1322v-3.75a.52.52 0 0 0-.16-.38.52.52 0 0 0-.38-.16zm26.78 21.43c.15 0 .27-.05.38-.16.1-.1.16-.23.16-.38V788.3h-27.86v10.17a.546.546 0 0 0 .54.54zm-25.17-2.14v-2.15h4.28v2.15zm6.42 0v-2.15h6.43v2.15z"/></defs><use fill="#252525" xlink:href="#a" transform="translate(-1290 -774)"/></svg>