<svg xmlns="http://www.w3.org/2000/svg" xmlns:xlink="http://www.w3.org/1999/xlink" width="36" height="22"><defs><path id="a" d="M1013.31 798.11c.08.13.12.24.12.35 0 .15-.05.27-.16.38-.1.1-.23.16-.38.16h-16.07a.66.66 0 0 1-.22-.03.3.3 0 0 1-.16-.12l-.09-.13a.48.48 0 0 1-.05-.2l-.01-.19V788.29h-3.22c-.29 0-.54-.11-.75-.32a1.03 1.03 0 0 1-.32-.76 1 1 0 0 1 .25-.68l5.36-6.43c.21-.25.48-.37.82-.37.33 0 .6.12.82.37l5.36 6.43a1 1 0 0 1 .25.68c0 .3-.1.55-.32.76-.21.2-.46.32-.75.32h-3.22v6.42h9.64c.18 0 .32.07.42.19zm10.83-6.61a1 1 0 0 1-.25.69l-5.36 6.42c-.22.26-.5.39-.82.39-.32 0-.6-.13-.82-.39l-5.35-6.42a1 1 0 0 1-.25-.69c0-.29.1-.54.31-.75.22-.22.47-.32.76-.32h3.21V784h-9.64a.5.5 0 0 1-.42-.2l-2.68-3.22a.53.53 0 0 1 .04-.7.5.5 0 0 1 .38-.17h16.07c.1 0 .17.02.23.04s.1.06.15.11l.09.14c.02.03.04.1.05.2l.02.18v10.05h3.21c.3 0 .54.1.75.32.22.2.32.46.32.75z"/></defs><use fill="#252525" xlink:href="#a" transform="translate(-990 -778)"/></svg>