<svg xmlns="http://www.w3.org/2000/svg" xmlns:xlink="http://www.w3.org/1999/xlink" width="22" height="19"><defs><path id="a" d="M1502.28 78.29c0 .63-.5 1.14-1.14 1.14h-.14l-1.02 5.9c-.1.55-.57.95-1.13.95h-11.42c-.56 0-1.03-.4-1.13-.94l-1.02-5.91h-.14a1.14 1.14 0 1 1 0-2.28h16c.63 0 1.14.5 1.14 1.14zm-13.42 5.38l-.29-3.71a.58.58 0 0 0-.62-.53.58.58 0 0 0-.52.62l.28 3.7c.03.3.28.54.57.54h.05c.31-.03.55-.3.53-.62zM1492 80a.58.58 0 0 0-.57-.57.58.58 0 0 0-.57.57v3.71c0 .32.25.58.57.58.3 0 .57-.26.57-.58zm3.43 0a.58.58 0 0 0-.58-.57.58.58 0 0 0-.57.57v3.71c0 .32.26.58.57.58.32 0 .58-.26.58-.58zm3.42.05a.58.58 0 0 0-.52-.62.58.58 0 0 0-.62.53l-.28 3.7c-.03.32.2.6.52.63h.05c.3 0 .54-.24.57-.53zm-11.43-3.48h-1.18l.9-3.93a2.27 2.27 0 0 1 2.22-1.78h1.5c0-.31.25-.57.57-.57h3.42c.32 0 .58.26.58.57h1.49c1.07 0 1.99.73 2.22 1.78l.9 3.93h-1.18l-.83-3.67c-.12-.53-.58-.9-1.11-.9h-1.5c0 .32-.25.57-.57.57h-3.42a.58.58 0 0 1-.57-.57h-1.5c-.53 0-.99.37-1.11.9z"/></defs><use fill="#464646" xlink:href="#a" transform="translate(-1482 -69)"/></svg>