<svg xmlns="http://www.w3.org/2000/svg" width="36" height="386"><svg xmlns:xlink="http://www.w3.org/1999/xlink" width="8" height="11"><defs><path id="a" d="M929.5 1163a.5.5 0 0 0-.15-.35l-3.5-3.5a.5.5 0 0 0-.85.35v7c0 .27.23.5.5.5a.5.5 0 0 0 .35-.15l3.5-3.5a.5.5 0 0 0 .15-.35z"/></defs><use xlink:href="#a" transform="translate(-923 -1157)" fill="#111"/></svg><svg xmlns:xlink="http://www.w3.org/1999/xlink" width="8" height="11" y="11"><defs><path id="b" d="M1527.5 4419a.5.5 0 0 0-.15-.35l-3.5-3.5a.5.5 0 0 0-.35-.15.5.5 0 0 0-.5.5v7c0 .27.23.5.5.5a.5.5 0 0 0 .35-.15l3.5-3.5a.5.5 0 0 0 .15-.35z"/></defs><g transform="translate(-1521 -4413)"><use xlink:href="#b" fill="#111"/><use xlink:href="#b" fill="#fff"/></g></svg><svg xmlns:xlink="http://www.w3.org/1999/xlink" width="24" height="16" y="22"><defs><path id="c" d="M665.56 4905h-5.13v1.24h5.13zm-4.62 6.23c.04-.6.25-1.08.62-1.43.38-.35.87-.52 1.47-.52 1.22 0 1.89.65 2.01 1.95zm.58 3.31a2.4 2.4 0 0 1-.58-1.72h6.61l.02-.47c0-.92-.17-1.75-.5-2.5a4.21 4.21 0 0 0-3.96-2.47c-1.38 0-2.5.46-3.38 1.38a4.84 4.84 0 0 0-1.3 3.47c0 1.44.41 2.6 1.26 3.48a4.52 4.52 0 0 0 3.42 1.33c2.2 0 3.62-1.03 4.3-3.08h-2.23c-.11.36-.37.66-.76.87-.4.21-.8.32-1.23.32-.73 0-1.29-.2-1.67-.6zm-11.74-3.38h3.04c1.33 0 2 .6 2 1.81 0 1.12-.7 1.68-2.06 1.68h-2.98zm0-4.86h2.61c1.28 0 1.91.48 1.91 1.45 0 .51-.15.9-.45 1.14s-.72.37-1.25.37h-2.82zm-2.78 10.5h6.14c.47 0 .91-.04 1.34-.13s.84-.23 1.22-.42c.38-.2.71-.44.99-.72s.5-.62.66-1.04c.16-.4.25-.87.25-1.37 0-.8-.2-1.5-.59-2.05a3.01 3.01 0 0 0-1.72-1.15c1.15-.55 1.72-1.43 1.72-2.64 0-.61-.1-1.13-.31-1.55a2.24 2.24 0 0 0-.9-.97c-.4-.22-.82-.38-1.28-.48-.45-.1-.97-.14-1.55-.14H647z"/></defs><use xlink:href="#c" transform="translate(-645 -4903)" fill="#0065f8"/></svg><svg xmlns:xlink="http://www.w3.org/1999/xlink" width="15" height="13" y="38"><defs><path id="d" d="M875.43 4113.9a.83.83 0 0 0-.6.25.83.83 0 0 0-.26.6c0 .24.09.44.25.61.17.17.37.25.6.25.25 0 .45-.08.61-.25a.83.83 0 0 0 .26-.6.83.83 0 0 0-.26-.61.83.83 0 0 0-.6-.25zm2.57 0a.83.83 0 0 0-.6.25.83.83 0 0 0-.26.6c0 .24.09.44.25.61.17.17.37.25.61.25s.44-.08.6-.25a.83.83 0 0 0 .26-.6.83.83 0 0 0-.25-.61.83.83 0 0 0-.61-.25zm2.57 0a.83.83 0 0 0-.6.25.83.83 0 0 0-.26.6c0 .24.09.44.26.61.16.17.36.25.6.25s.44-.08.6-.25a.83.83 0 0 0 .26-.6.83.83 0 0 0-.25-.61.83.83 0 0 0-.6-.25zm1.87-.85c.47.52.7 1.1.7 1.7 0 .62-.23 1.19-.7 1.71a4.8 4.8 0 0 1-1.89 1.26 6.94 6.94 0 0 1-3.42.4l-.38-.03-.29.25a6.6 6.6 0 0 1-1.84 1.15c.2-.36.36-.75.47-1.15l.18-.65-.58-.33a4.08 4.08 0 0 1-1.35-1.18 2.44 2.44 0 0 1-.48-1.43c0-.6.23-1.18.7-1.7a4.8 4.8 0 0 1 1.89-1.26c.79-.3 1.64-.46 2.55-.46s1.76.15 2.55.46c.8.31 1.43.73 1.9 1.26zm1.08.04a4.57 4.57 0 0 0-1.27-1.37 6.52 6.52 0 0 0-1.92-.91 7.97 7.97 0 0 0-6.58.91c-.53.38-.96.84-1.27 1.37a3.19 3.19 0 0 0 .13 3.55c.4.58.95 1.07 1.65 1.47a4.27 4.27 0 0 1-.78 1.5 68.68 68.68 0 0 0-.54.61l-.04.06-.03.07-.01.06v.09c.02.08.06.14.11.18.05.05.11.07.18.07h.04a7.32 7.32 0 0 0 3.84-1.77 7.78 7.78 0 0 0 3.98-.52c.92-.37 1.65-.9 2.19-1.55.53-.66.8-1.38.8-2.16 0-.58-.16-1.13-.48-1.66z"/></defs><use xlink:href="#d" transform="translate(-870 -4109)" fill="#252525"/></svg><svg xmlns:xlink="http://www.w3.org/1999/xlink" width="15" height="15" y="51"><defs><path id="e" d="M382.86 4117.9h1.93v1.93h-1.93zm2.35 0h2.15v1.93h-2.15zm-2.35-2.57h1.93v2.14h-1.93zm2.35 0h2.15v2.14h-2.15zm-2.35-2.36h1.93v1.93h-1.93zm4.93 4.93h2.14v1.93h-2.14zm-2.58-4.93h2.15v1.93h-2.15zm5.15 4.93h1.93v1.93h-1.93zm-2.57-2.57h2.14v2.14h-2.14zm-2.43-3.5a.2.2 0 0 1-.15.07h-.42a.2.2 0 0 1-.15-.07.2.2 0 0 1-.07-.15v-1.92c0-.06.02-.11.07-.16a.2.2 0 0 1 .15-.06h.42c.06 0 .11.02.15.06.05.05.07.1.07.16v1.92a.2.2 0 0 1-.07.15zm5 3.5h1.93v2.14h-1.93zm-2.57-2.36h2.14v1.93h-2.14zm2.57 0h1.93v1.93h-1.93zm.15-1.14a.2.2 0 0 1-.15.07h-.43a.2.2 0 0 1-.15-.07.2.2 0 0 1-.07-.15v-1.92c0-.06.03-.11.07-.16a.2.2 0 0 1 .15-.06h.43c.06 0 .1.02.15.06.04.05.06.1.06.16v1.92a.2.2 0 0 1-.06.15zm2.38-1.18a.82.82 0 0 0-.6-.25h-.86v-.64c0-.3-.1-.55-.32-.76a1.03 1.03 0 0 0-.75-.32h-.43c-.3 0-.55.1-.76.32-.2.2-.31.46-.31.76v.64h-2.57v-.64c0-.3-.1-.55-.32-.76a1.03 1.03 0 0 0-.76-.32h-.42c-.3 0-.55.1-.76.32-.21.2-.32.46-.32.76v.64h-.85a.82.82 0 0 0-.6.25.82.82 0 0 0-.26.6v8.58c0 .23.08.43.25.6s.37.25.6.25h9.44c.23 0 .43-.08.6-.25a.82.82 0 0 0 .25-.6v-8.57a.82.82 0 0 0-.25-.6z"/></defs><use xlink:href="#e" transform="translate(-380 -4107)" fill="#252525"/></svg><svg xmlns:xlink="http://www.w3.org/1999/xlink" width="12" height="20" y="66"><defs><path id="f" d="M418.34 4901.6a3.8 3.8 0 0 0-2.78 1.03 3.88 3.88 0 0 0-1.04 2.9v2.19h-2.57v2.97h2.57v7.63h3.07v-7.63h2.55l.4-2.97h-2.95v-1.9c0-.48.1-.84.3-1.08.2-.25.59-.37 1.17-.37h1.57v-2.65c-.54-.08-1.3-.12-2.29-.12z"/></defs><use xlink:href="#f" transform="translate(-410 -4900)" fill="#fff"/></svg><svg xmlns:xlink="http://www.w3.org/1999/xlink" width="31" height="27" y="86"><defs><path id="g" d="M400.57 799c-.58 0-1.08-.21-1.5-.64a2.06 2.06 0 0 1-.64-1.5c0-.58.21-1.09.63-1.51.43-.42.93-.64 1.51-.64s1.08.22 1.5.64c.43.42.64.93.64 1.5 0 .59-.2 1.09-.63 1.51-.43.43-.93.64-1.5.64zm-4.28-11.22a.5.5 0 0 1 .15-.37l3.26-3.26a.5.5 0 0 1 .37-.15h2.64v4.29h-6.42zM415.57 799c-.58 0-1.08-.21-1.5-.64a2.06 2.06 0 0 1-.64-1.5c0-.58.21-1.09.63-1.51.43-.42.93-.64 1.51-.64s1.08.22 1.5.64c.43.42.64.93.64 1.5 0 .59-.2 1.09-.63 1.51-.43.43-.93.64-1.5.64zm6.11-21.11a1.03 1.03 0 0 0-.75-.32h-17.14c-.3 0-.55.1-.76.32-.21.21-.32.46-.32.75v3.22h-2.67c-.3 0-.63.07-.98.21-.36.15-.64.33-.85.54l-3.31 3.32a3.04 3.04 0 0 0-.61 1.01c-.06.15-.1.36-.11.62a15.65 15.65 0 0 0-.05 1.21l.01.59v5.35c-.29 0-.54.11-.75.32s-.32.47-.32.76c0 .16.02.31.07.44.04.13.12.23.22.3l.28.2c.08.05.21.09.4.1l.37.04a4.74 4.74 0 0 0 .8-.01h1.08c0 1.18.41 2.19 1.25 3.03a4.13 4.13 0 0 0 3.03 1.25c1.18 0 2.2-.42 3.03-1.25a4.13 4.13 0 0 0 1.26-3.03h6.43c0 1.18.41 2.19 1.25 3.03a4.13 4.13 0 0 0 3.03 1.25c1.18 0 2.2-.42 3.03-1.25a4.13 4.13 0 0 0 1.26-3.03 25.88 25.88 0 0 1 .8 0l.38-.03a.92.92 0 0 0 .4-.1l.27-.2c.1-.07.18-.17.22-.3.05-.13.07-.28.07-.44v-17.15c0-.29-.1-.54-.32-.75z"/></defs><use xlink:href="#g" transform="translate(-392 -776)" fill="#252525"/></svg><svg xmlns:xlink="http://www.w3.org/1999/xlink" width="27" height="17" y="113"><defs><path id="h" d="M611.31 4909.5a7.76 7.76 0 0 1-.75 4.95 6.3 6.3 0 0 1-2.5 2.54 7.37 7.37 0 0 1-3.7.92 7.37 7.37 0 0 1-5.21-2.15 7.37 7.37 0 0 1-1.57-8.07 7.37 7.37 0 0 1 6.78-4.5c1.92 0 3.56.64 4.93 1.93l-2 1.92a4.06 4.06 0 0 0-2.93-1.14 4.58 4.58 0 0 0-4.56 4.65 4.62 4.62 0 0 0 7.24 3.84 4.19 4.19 0 0 0 1.29-1.62c.1-.26.17-.5.21-.74h-4.18v-2.53zm8.83 0v2.1h-2.1v2.1h-2.1v-2.1h-2.1v-2.1h2.1v-2.1h2.1v2.1z"/></defs><use xlink:href="#h" transform="translate(-595 -4902)" fill="#fff"/></svg><svg xmlns:xlink="http://www.w3.org/1999/xlink" width="19" height="19" y="130"><defs><path id="i" d="M508.71 4913.1c-.7 0-1.31-.25-1.81-.75s-.76-1.1-.76-1.82c0-.7.25-1.31.76-1.82.5-.5 1.1-.75 1.81-.75s1.32.25 1.82.75.76 1.11.76 1.82-.26 1.32-.76 1.82-1.1.75-1.82.75zm0-6.53c-1.1 0-2.03.39-2.8 1.16a3.82 3.82 0 0 0-1.15 2.8c0 1.1.38 2.03 1.15 2.8s1.7 1.16 2.8 1.16 2.04-.39 2.8-1.16a3.82 3.82 0 0 0 1.16-2.8c0-1.1-.38-2.03-1.15-2.8a3.82 3.82 0 0 0-2.8-1.16zm4.12-1.08c-.25 0-.47.09-.65.27a.89.89 0 0 0-.27.65c0 .26.09.47.27.66.18.18.4.27.65.27.26 0 .47-.1.66-.27.18-.19.27-.4.27-.66a.89.89 0 0 0-.27-.65.89.89 0 0 0-.66-.27zm-2.29-1.3l.97.04c.4.02.75.05 1.04.1a2.6 2.6 0 0 1 2.18 1.65c.07.2.14.43.19.72.05.28.08.63.1 1.03a38.38 38.38 0 0 1 .02 2.8 203.61 203.61 0 0 0 0 1.83c0 .24 0 .56-.02.97-.02.4-.05.75-.1 1.03-.05.29-.12.53-.19.72a2.6 2.6 0 0 1-1.47 1.47c-.19.07-.43.13-.71.18-.29.05-.63.09-1.04.1a37.35 37.35 0 0 1-2.8.03 200.3 200.3 0 0 0-1.82 0c-.24 0-.57 0-.97-.03-.4-.01-.75-.05-1.04-.1a4.02 4.02 0 0 1-.72-.18 2.6 2.6 0 0 1-1.46-1.47c-.08-.2-.14-.43-.19-.72a7.95 7.95 0 0 1-.1-1.03 36.74 36.74 0 0 1-.02-2.8 285.92 285.92 0 0 0 0-1.83c0-.24 0-.56.02-.97.02-.4.05-.75.1-1.03.05-.29.11-.52.19-.72a2.6 2.6 0 0 1 1.46-1.47c.2-.07.44-.13.72-.18.29-.05.63-.08 1.04-.1a38.75 38.75 0 0 1 2.8-.03 200.65 200.65 0 0 0 1.82 0zm4.6-.08a4.71 4.71 0 0 0-3.24-1.24c-.6-.04-1.65-.05-3.19-.05-1.53 0-2.6.01-3.18.05-1.4.06-2.47.48-3.23 1.24a4.71 4.71 0 0 0-1.25 3.24c-.03.59-.05 1.65-.05 3.18s.02 2.6.05 3.19c.07 1.39.48 2.47 1.25 3.23a4.71 4.71 0 0 0 3.23 1.25c.59.03 1.65.05 3.18.05 1.54 0 2.6-.02 3.19-.05a4.71 4.71 0 0 0 3.23-1.25 4.71 4.71 0 0 0 1.25-3.23c.03-.6.05-1.66.05-3.19s-.02-2.6-.05-3.18a4.71 4.71 0 0 0-1.25-3.24z"/></defs><use xlink:href="#i" transform="translate(-499 -4901)" fill="#fff"/></svg><svg xmlns:xlink="http://www.w3.org/1999/xlink" width="36" height="29" y="149"><defs><path id="j" d="M1321.5 775.43c.74 0 1.37.26 1.9.79.52.52.78 1.15.78 1.89v20.35c0 .74-.26 1.37-.78 1.9-.53.52-1.16.78-1.9.78h-26.78c-.74 0-1.37-.26-1.9-.78a2.58 2.58 0 0 1-.78-1.9v-20.35c0-.74.26-1.37.79-1.9a2.58 2.58 0 0 1 1.89-.78zm-26.78 2.14a.52.52 0 0 0-.38.16c-.1.1-.16.23-.16.38v3.75h27.9v-3.75a.52.52 0 0 0-.16-.38.52.52 0 0 0-.38-.16zM1321.5 799c.15 0 .27-.05.38-.16.1-.1.16-.23.16-.38V788.3h-27.86v10.17a.546.546 0 0 0 .54.54zm-25.17-2.14v-2.15h4.28v2.15zm6.42 0v-2.15h6.43v2.15z"/></defs><use xlink:href="#j" transform="translate(-1290 -774)" fill="#252525"/></svg><svg xmlns:xlink="http://www.w3.org/1999/xlink" width="36" height="22" y="178"><defs><path id="k" d="M1013.3 798.11c.08.13.12.24.12.35 0 .15-.05.27-.16.38-.1.1-.23.16-.38.16h-16.07a.66.66 0 0 1-.22-.03.3.3 0 0 1-.16-.12l-.09-.13a.48.48 0 0 1-.05-.2l-.01-.19v-10.04h-3.22c-.29 0-.54-.11-.75-.32a1.03 1.03 0 0 1-.32-.76 1 1 0 0 1 .25-.68l5.36-6.43c.21-.25.48-.37.82-.37.33 0 .6.12.82.37l5.36 6.43a1 1 0 0 1 .25.68c0 .3-.1.55-.32.76-.21.2-.46.32-.75.32h-3.22v6.42h9.64c.18 0 .32.07.42.19zm10.83-6.61a1 1 0 0 1-.25.69l-5.36 6.42c-.22.26-.5.39-.82.39s-.6-.13-.82-.39l-5.35-6.42a1 1 0 0 1-.25-.69c0-.29.1-.54.31-.75.22-.22.47-.32.76-.32h3.21V784h-9.64a.5.5 0 0 1-.42-.2l-2.68-3.22a.53.53 0 0 1 .04-.7.5.5 0 0 1 .38-.17h16.07c.1 0 .17.02.23.04s.1.06.15.11l.09.14c.02.03.04.1.05.2l.02.18v10.05h3.21c.3 0 .54.1.75.32.22.2.32.46.32.75z"/></defs><use xlink:href="#k" transform="translate(-990 -778)" fill="#252525"/></svg><svg xmlns:xlink="http://www.w3.org/1999/xlink" width="18" height="18" y="200"><defs><path id="l" d="M1375.3 77.72a4 4 0 1 1-8-.01 4 4 0 0 1 8 0zm4.57 7.42c0-.3-.12-.6-.33-.8l-3.06-3.06a6.27 6.27 0 0 0-5.18-9.85 6.28 6.28 0 1 0 3.57 11.46l3.06 3.06a1.14 1.14 0 0 0 1.94-.81z"/></defs><use xlink:href="#l" transform="translate(-1363 -70)" fill="#464646"/></svg><svg xmlns:xlink="http://www.w3.org/1999/xlink" width="22" height="19" y="218"><defs><path id="m" d="M1502.3 78.29c0 .63-.5 1.14-1.14 1.14h-.14l-1.02 5.9c-.1.55-.57.95-1.13.95h-11.42c-.56 0-1.03-.4-1.13-.94l-1.02-5.91h-.14a1.14 1.14 0 1 1 0-2.28h16c.63 0 1.14.5 1.14 1.14zm-13.42 5.38l-.29-3.71a.58.58 0 0 0-.62-.53.58.58 0 0 0-.52.62l.28 3.7c.03.3.28.54.57.54h.05c.31-.03.55-.3.53-.62zm3.1-3.67a.58.58 0 0 0-.57-.57.58.58 0 0 0-.57.57v3.71c0 .32.25.58.57.58.3 0 .57-.26.57-.58zm3.43 0a.58.58 0 0 0-.58-.57.58.58 0 0 0-.57.57v3.71c0 .32.26.58.57.58.32 0 .58-.26.58-.58zm3.42.05a.58.58 0 0 0-.52-.62.58.58 0 0 0-.62.53l-.28 3.7c-.03.32.2.6.52.63h.05c.3 0 .54-.24.57-.53zm-11.43-3.48h-1.18l.9-3.93a2.27 2.27 0 0 1 2.22-1.78h1.5c0-.31.25-.57.57-.57h3.42c.32 0 .58.26.58.57h1.49c1.07 0 1.99.73 2.22 1.78l.9 3.93h-1.18l-.83-3.67c-.12-.53-.58-.9-1.11-.9h-1.5c0 .32-.25.57-.57.57h-3.42a.58.58 0 0 1-.57-.57h-1.5c-.53 0-.99.37-1.11.9z"/></defs><use xlink:href="#m" transform="translate(-1482 -69)" fill="#464646"/></svg><svg xmlns:xlink="http://www.w3.org/1999/xlink" width="14" height="15" y="237"><defs><path id="n" d="M641.8 2033.2c0-.22-.23-.3-.4-.33l-3.52-.51-1.59-3.2c-.06-.14-.18-.29-.34-.29s-.28.15-.34.29l-1.59 3.2-3.53.51c-.17.03-.39.11-.39.32 0 .13.1.25.18.34l2.56 2.5-.61 3.5-.01.15c0 .18.09.35.3.35a.6.6 0 0 0 .27-.09l3.16-1.66 3.16 1.66c.08.05.18.09.28.09.2 0 .29-.17.29-.35l-.01-.14-.6-3.52 2.55-2.49c.09-.09.18-.2.18-.34z"/></defs><use xlink:href="#n" transform="translate(-629 -2027)" fill="#b7b7b7"/></svg><svg xmlns:xlink="http://www.w3.org/1999/xlink" width="15" height="15" y="252"><defs><path id="o" d="M613.4 2033.2c0-.22-.23-.3-.4-.33l-3.52-.51-1.59-3.2c-.06-.14-.18-.29-.34-.29s-.28.15-.34.29l-1.59 3.2-3.53.51c-.17.03-.39.11-.39.32 0 .13.1.25.18.34l2.56 2.5-.61 3.5-.01.15c0 .18.09.35.3.35a.6.6 0 0 0 .27-.09l3.16-1.66 3.16 1.66c.08.05.18.09.28.09.2 0 .29-.17.29-.35l-.01-.14-.6-3.52 2.55-2.49c.09-.09.18-.2.18-.34z"/></defs><g transform="translate(-600 -2027)"><use xlink:href="#o" fill="#b7b7b7"/><use xlink:href="#o" fill="#eecf00"/></g></svg><svg xmlns:xlink="http://www.w3.org/1999/xlink" width="33" height="33" y="267"><defs><path id="p" d="M701.17 774.47c1.86-.79 3.8-1.18 5.83-1.18a15.08 15.08 0 0 1 10.61 4.39 15.08 15.08 0 0 1 0 21.22 15.07 15.07 0 0 1-21.22 0 15.06 15.06 0 0 1 0-21.23 15.08 15.08 0 0 1 4.78-3.2zm11.87 2.46a12.8 12.8 0 0 0-12.08 0l3.24 3.25a8.6 8.6 0 0 1 5.6 0zm-17.4 17.4l3.26-3.25a8.6 8.6 0 0 1 0-5.59l-3.25-3.25a12.8 12.8 0 0 0 0 12.09zm5.32 5.3a12.8 12.8 0 0 0 12.08 0l-3.24-3.24a8.6 8.6 0 0 1-5.6 0zm1.5-6.8a6.2 6.2 0 0 0 4.54 1.88 6.2 6.2 0 0 0 4.55-1.88 6.2 6.2 0 0 0 1.88-4.54 6.2 6.2 0 0 0-1.88-4.55 6.2 6.2 0 0 0-4.55-1.88 6.2 6.2 0 0 0-4.55 1.88 6.2 6.2 0 0 0-1.88 4.55 6.2 6.2 0 0 0 1.88 4.54zm12.64-1.75l3.25 3.25a12.8 12.8 0 0 0 0-12.09l-3.25 3.25a8.6 8.6 0 0 1 0 5.6z"/></defs><use xlink:href="#p" transform="translate(-690 -772)" fill="#252525"/></svg><svg xmlns:xlink="http://www.w3.org/1999/xlink" width="19" height="15" y="300"><defs><path id="q" d="M465.4 4906.2a3.15 3.15 0 0 0 1.43-1.79c-.64.39-1.33.65-2.06.79a3.13 3.13 0 0 0-2.37-1.03c-.9 0-1.66.32-2.3.95-.63.63-.94 1.4-.94 2.3 0 .24.02.49.08.74a9.2 9.2 0 0 1-6.69-3.4c-.3.5-.45 1.05-.45 1.64a3.24 3.24 0 0 0 1.45 2.7 3.22 3.22 0 0 1-1.47-.4v.03c0 .79.25 1.47.74 2.07.5.59 1.12.96 1.87 1.12a3.35 3.35 0 0 1-1.47.06c.2.65.59 1.18 1.14 1.6.56.42 1.19.63 1.9.65a6.35 6.35 0 0 1-4.82 1.34 9.48 9.48 0 0 0 8.23.9 8.26 8.26 0 0 0 2.59-1.45 9.81 9.81 0 0 0 3.01-4.61 9.22 9.22 0 0 0 .38-3.03 6.8 6.8 0 0 0 1.62-1.68c-.62.27-1.24.43-1.87.5z"/></defs><use xlink:href="#q" transform="translate(-450 -4903)" fill="#fff"/></svg><svg xmlns:xlink="http://www.w3.org/1999/xlink" width="19" height="19" y="315"><defs><path id="r" d="M1420 78.29a8 8 0 1 1-16-.01 8 8 0 0 1 16 0zm-1.15 0a6.87 6.87 0 0 0-6.85-6.86 6.87 6.87 0 0 0-5.53 10.92c.32-1.6 1.1-2.92 2.73-2.92a3.99 3.99 0 0 0 5.6 0c1.63 0 2.4 1.32 2.72 2.92a6.9 6.9 0 0 0 1.33-4.06zm-3.42-1.72a3.43 3.43 0 1 1-6.86 0 3.43 3.43 0 0 1 6.86 0z"/></defs><use xlink:href="#r" transform="translate(-1402 -69)" fill="#464646"/></svg><svg xmlns:xlink="http://www.w3.org/1999/xlink" width="20" height="20" y="334"><defs><path id="s" d="M559.19 1933.4a.31.31 0 0 0-.23-.1h-2.25v-2.24a.3.3 0 0 0-.1-.23.31.31 0 0 0-.22-.1h-.64a.3.3 0 0 0-.23.1.3.3 0 0 0-.1.23v2.25h-2.24a.3.3 0 0 0-.23.1.3.3 0 0 0-.1.22v.64c0 .09.04.16.1.23.07.06.14.1.23.1h2.25v2.24c0 .09.03.16.1.23.06.06.13.1.22.1h.64a.3.3 0 0 0 .23-.1.3.3 0 0 0 .1-.23v-2.25h2.24a.3.3 0 0 0 .23-.1.3.3 0 0 0 .1-.22v-.64a.31.31 0 0 0-.1-.23zm-3.12 5.05c-1.24 0-2.3-.44-3.18-1.32a4.33 4.33 0 0 1-1.32-3.18c0-1.24.44-2.3 1.32-3.18a4.33 4.33 0 0 1 3.18-1.32c1.24 0 2.3.44 3.18 1.32a4.33 4.33 0 0 1 1.32 3.18c0 1.24-.44 2.3-1.32 3.18a4.33 4.33 0 0 1-3.18 1.32zm5.83-.5a6.88 6.88 0 0 0 1.24-4 7.08 7.08 0 0 0-4.32-6.51 6.95 6.95 0 0 0-5.5 0 7.07 7.07 0 0 0-3.76 3.76 6.95 6.95 0 0 0 0 5.5 7.07 7.07 0 0 0 3.76 3.76c.88.37 1.8.56 2.75.56 1.47 0 2.81-.42 4-1.25l3.45 3.44c.25.25.55.38.9.38.36 0 .67-.12.92-.38.25-.25.37-.55.37-.9 0-.36-.12-.66-.37-.9z"/></defs><use xlink:href="#s" transform="translate(-547 -1925)" fill="#31353d"/></svg><svg xmlns:xlink="http://www.w3.org/1999/xlink" width="19" height="17" y="354"><defs><path id="t" d="M1459.8 75.6c0 1.64-1.65 3.16-1.67 3.19l-5.18 4.99-5.19-5c-.02-.02-1.67-1.54-1.67-3.17 0-2.5 1.7-3.04 3.13-3.04 1.33 0 2.83 1.44 3.3 2 .2.25.65.25.87 0 .46-.56 1.96-2 3.29-2 1.43 0 3.12.53 3.12 3.04zm1.15 0c0-2.6-1.6-4.17-4.27-4.17-1.56 0-3.03 1.23-3.73 1.93-.7-.7-2.17-1.93-3.73-1.93-2.67 0-4.27 1.56-4.27 4.18 0 2.14 1.96 3.94 2.04 4l5.57 5.37a.55.55 0 0 0 .79 0l5.55-5.35c.08-.08 2.05-1.88 2.05-4.02z"/></defs><use xlink:href="#t" transform="translate(-1443 -70)" fill="#464646"/></svg><svg xmlns:xlink="http://www.w3.org/1999/xlink" width="21" height="15" y="371"><defs><path id="u" d="M554.41 4914.3c-.1.06-.2.1-.34.1a.7.7 0 0 1-.31-.08.6.6 0 0 1-.33-.56v-6.43a.6.6 0 0 1 .33-.57.6.6 0 0 1 .65.02l5.15 3.22c.2.11.3.3.3.54 0 .25-.1.43-.3.54zm10.5-6.64c-.06-.55-.13-1.04-.22-1.48-.1-.49-.34-.9-.7-1.23a2.14 2.14 0 0 0-1.25-.59 65.91 65.91 0 0 0-6.74-.25c-3 0-5.25.09-6.74.25-.48.06-.9.25-1.25.59-.35.33-.58.74-.69 1.23a19.64 19.64 0 0 0-.31 2.85 86 86 0 0 0 0 3.02 19.65 19.65 0 0 0 .3 2.85c.1.49.34.9.7 1.24.36.33.77.53 1.25.58 1.49.17 3.73.25 6.74.25 3 0 5.25-.08 6.74-.25.48-.05.89-.25 1.25-.58.35-.34.58-.75.69-1.24a19.72 19.72 0 0 0 .31-2.85 87.12 87.12 0 0 0 0-3.02c0-.36-.04-.81-.09-1.37z"/></defs><use xlink:href="#u" transform="translate(-545 -4903)" fill="#fff"/></svg></svg>