<svg xmlns="http://www.w3.org/2000/svg" xmlns:xlink="http://www.w3.org/1999/xlink" width="33" height="33"><defs><path id="a" d="M701.17 774.47c1.86-.79 3.8-1.18 5.83-1.18a15.08 15.08 0 0 1 10.61 4.39 15.08 15.08 0 0 1 0 21.22 15.07 15.07 0 0 1-21.22 0 15.06 15.06 0 0 1 0-21.23 15.08 15.08 0 0 1 4.78-3.2zm11.87 2.46a12.8 12.8 0 0 0-12.08 0l3.24 3.25a8.6 8.6 0 0 1 5.6 0zm-17.4 17.4l3.26-3.25a8.6 8.6 0 0 1 0-5.59l-3.25-3.25a12.8 12.8 0 0 0 0 12.09zm5.32 5.3a12.8 12.8 0 0 0 12.08 0l-3.24-3.24a8.6 8.6 0 0 1-5.6 0zm1.5-6.8a6.2 6.2 0 0 0 4.54 1.88 6.2 6.2 0 0 0 4.55-1.88 6.2 6.2 0 0 0 1.88-4.54 6.2 6.2 0 0 0-1.88-4.55 6.2 6.2 0 0 0-4.55-1.88 6.2 6.2 0 0 0-4.55 1.88 6.2 6.2 0 0 0-1.88 4.55 6.2 6.2 0 0 0 1.88 4.54zm12.64-1.75l3.25 3.25a12.8 12.8 0 0 0 0-12.09l-3.25 3.25a8.6 8.6 0 0 1 0 5.6z"/></defs><use fill="#252525" xlink:href="#a" transform="translate(-690 -772)"/></svg>