<svg xmlns="http://www.w3.org/2000/svg" xmlns:xlink="http://www.w3.org/1999/xlink" width="19" height="15"><defs><path id="a" d="M465.4 4906.17a3.15 3.15 0 0 0 1.43-1.79c-.64.39-1.33.65-2.06.79a3.13 3.13 0 0 0-2.37-1.03c-.9 0-1.66.32-2.3.95-.63.63-.94 1.4-.94 2.3 0 .24.02.49.08.74a9.2 9.2 0 0 1-6.69-3.4c-.3.5-.45 1.05-.45 1.64a3.24 3.24 0 0 0 1.45 2.7 3.22 3.22 0 0 1-1.47-.4v.03c0 .79.25 1.47.74 2.07.5.59 1.12.96 1.87 1.12a3.35 3.35 0 0 1-1.47.06c.2.65.59 1.18 1.14 1.6.56.42 1.19.63 1.9.65a6.35 6.35 0 0 1-4.82 1.34 9.48 9.48 0 0 0 8.23.9 8.26 8.26 0 0 0 2.59-1.45 9.81 9.81 0 0 0 3.01-4.61 9.22 9.22 0 0 0 .38-3.03 6.8 6.8 0 0 0 1.62-1.68c-.62.27-1.24.43-1.87.5z"/></defs><use fill="#fff" xlink:href="#a" transform="translate(-450 -4903)"/></svg>