<svg xmlns="http://www.w3.org/2000/svg" xmlns:xlink="http://www.w3.org/1999/xlink" width="21" height="15"><defs><path id="a" d="M554.41 4914.33c-.1.06-.2.1-.34.1a.7.7 0 0 1-.31-.08.6.6 0 0 1-.33-.56v-6.43a.6.6 0 0 1 .33-.57.6.6 0 0 1 .65.02l5.15 3.22c.2.11.3.3.3.54 0 .25-.1.43-.3.54zm10.5-6.64c-.06-.55-.13-1.04-.22-1.48-.1-.49-.34-.9-.7-1.23a2.14 2.14 0 0 0-1.25-.59 65.91 65.91 0 0 0-6.74-.25c-3 0-5.25.09-6.74.25-.48.06-.9.25-1.25.59-.35.33-.58.74-.69 1.23a19.64 19.64 0 0 0-.31 2.85 86 86 0 0 0 0 3.02 19.65 19.65 0 0 0 .3 2.85c.1.49.34.9.7 1.24.36.33.77.53 1.25.58 1.49.17 3.73.25 6.74.25 3 0 5.25-.08 6.74-.25.48-.05.89-.25 1.25-.58.35-.34.58-.75.69-1.24a19.72 19.72 0 0 0 .31-2.85 87.12 87.12 0 0 0 0-3.02c0-.36-.04-.81-.09-1.37z"/></defs><use fill="#fff" xlink:href="#a" transform="translate(-545 -4903)"/></svg>