<svg xmlns="http://www.w3.org/2000/svg" xmlns:xlink="http://www.w3.org/1999/xlink" width="15" height="13" viewBox="0 0 15 13"><defs><path id="wzl4a" d="M875.43 4113.86a.83.83 0 0 0-.6.25.83.83 0 0 0-.26.6c0 .24.09.44.25.61.17.17.37.25.6.25.25 0 .45-.08.61-.25a.83.83 0 0 0 .26-.6.83.83 0 0 0-.26-.61.83.83 0 0 0-.6-.25zm2.57 0a.83.83 0 0 0-.6.25.83.83 0 0 0-.26.6c0 .24.09.44.25.61.17.17.37.25.61.25s.44-.08.6-.25a.83.83 0 0 0 .26-.6.83.83 0 0 0-.25-.61.83.83 0 0 0-.61-.25zm2.57 0a.83.83 0 0 0-.6.25.83.83 0 0 0-.26.6c0 .24.09.44.26.61.16.17.36.25.6.25s.44-.08.6-.25a.83.83 0 0 0 .26-.6.83.83 0 0 0-.25-.61.83.83 0 0 0-.6-.25zm1.87-.85c.47.52.7 1.1.7 1.7 0 .62-.23 1.19-.7 1.71a4.8 4.8 0 0 1-1.89 1.26 6.94 6.94 0 0 1-3.42.4l-.38-.03-.29.25a6.6 6.6 0 0 1-1.84 1.15c.2-.36.36-.75.47-1.15l.18-.65-.58-.33a4.08 4.08 0 0 1-1.35-1.18 2.44 2.44 0 0 1-.48-1.43c0-.6.23-1.18.7-1.7a4.8 4.8 0 0 1 1.89-1.26c.79-.3 1.64-.46 2.55-.46.91 0 1.76.15 2.55.46.8.31 1.43.73 1.9 1.26zm1.08.04a4.57 4.57 0 0 0-1.27-1.37 6.52 6.52 0 0 0-1.92-.91 7.97 7.97 0 0 0-6.58.91c-.53.38-.96.84-1.27 1.37a3.19 3.19 0 0 0 .13 3.55c.4.58.95 1.07 1.65 1.47a4.27 4.27 0 0 1-.78 1.5 68.68 68.68 0 0 0-.54.61l-.04.06-.03.07-.01.06v.09c.02.08.06.14.11.18.05.05.11.07.18.07h.04a7.32 7.32 0 0 0 3.84-1.77 7.78 7.78 0 0 0 3.98-.52c.92-.37 1.65-.9 2.19-1.55.53-.66.8-1.38.8-2.16 0-.58-.16-1.13-.48-1.66z"/></defs><g><g transform="translate(-870 -4109)"><use fill="#252525" xlink:href="#wzl4a"/></g></g></svg>