<svg xmlns="http://www.w3.org/2000/svg" xmlns:xlink="http://www.w3.org/1999/xlink" width="15" height="15" viewBox="0 0 15 15"><defs><path id="v1tga" d="M382.86 4117.93h1.93v1.93h-1.93zm2.35 0h2.15v1.93h-2.15zm-2.35-2.57h1.93v2.14h-1.93zm2.35 0h2.15v2.14h-2.15zm-2.35-2.36h1.93v1.93h-1.93zm4.93 4.93h2.14v1.93h-2.14zm-2.58-4.93h2.15v1.93h-2.15zm5.15 4.93h1.93v1.93h-1.93zm-2.57-2.57h2.14v2.14h-2.14zm-2.43-3.5a.2.2 0 0 1-.15.07h-.42a.2.2 0 0 1-.15-.07.2.2 0 0 1-.07-.15v-1.92c0-.06.02-.11.07-.16a.2.2 0 0 1 .15-.06h.42c.06 0 .11.02.15.06.05.05.07.1.07.16v1.92a.2.2 0 0 1-.07.15zm5 3.5h1.93v2.14h-1.93zm-2.57-2.36h2.14v1.93h-2.14zm2.57 0h1.93v1.93h-1.93zm.15-1.14a.2.2 0 0 1-.15.07h-.43a.2.2 0 0 1-.15-.07.2.2 0 0 1-.07-.15v-1.92c0-.06.03-.11.07-.16a.2.2 0 0 1 .15-.06h.43c.06 0 .1.02.15.06.04.05.06.1.06.16v1.92a.2.2 0 0 1-.06.15zm2.38-1.18a.82.82 0 0 0-.6-.25h-.86v-.64c0-.3-.1-.55-.32-.76a1.03 1.03 0 0 0-.75-.32h-.43c-.3 0-.55.1-.76.32-.2.2-.31.46-.31.76v.64h-2.57v-.64c0-.3-.1-.55-.32-.76a1.03 1.03 0 0 0-.76-.32h-.42c-.3 0-.55.1-.76.32-.21.2-.32.46-.32.76v.64h-.85a.82.82 0 0 0-.6.25.82.82 0 0 0-.26.6v8.58c0 .23.08.43.25.6.17.17.37.25.6.25h9.44c.23 0 .43-.08.6-.25a.82.82 0 0 0 .25-.6v-8.57a.82.82 0 0 0-.25-.6z"/></defs><g><g transform="translate(-380 -4107)"><use fill="#252525" xlink:href="#v1tga"/></g></g></svg>