<svg xmlns="http://www.w3.org/2000/svg" xmlns:xlink="http://www.w3.org/1999/xlink" width="27" height="17" viewBox="0 0 27 17"><defs><path id="h0u3a" d="M611.31 4909.52a7.76 7.76 0 0 1-.75 4.95 6.3 6.3 0 0 1-2.5 2.54 7.37 7.37 0 0 1-3.7.92 7.37 7.37 0 0 1-5.21-2.15 7.37 7.37 0 0 1-1.57-8.07 7.37 7.37 0 0 1 6.78-4.5c1.92 0 3.56.64 4.93 1.93l-2 1.92a4.06 4.06 0 0 0-2.93-1.14 4.58 4.58 0 0 0-4.56 4.65 4.62 4.62 0 0 0 7.24 3.84 4.19 4.19 0 0 0 1.29-1.62c.1-.26.17-.5.21-.74h-4.18v-2.53zm8.83 0v2.1h-2.1v2.1h-2.1v-2.1h-2.1v-2.1h2.1v-2.1h2.1v2.1z"/></defs><g><g transform="translate(-595 -4902)"><use fill="#fff" xlink:href="#h0u3a"/></g></g></svg>