<?xml version="1.0"?>
<!--Icons from directory ""-->
<svg xmlns="http://www.w3.org/2000/svg" width="36" height="386" viewBox="0 0 36 386"><svg xmlns:xlink="http://www.w3.org/1999/xlink" width="8" height="11" id="arrow-right-black" y="0"><defs><path id="arrow-right-black-a" d="m929.5 1163a0.5 0.5 0 0 0 -0.15 -0.35l-3.5-3.5a0.5 0.5 0 0 0 -0.85 0.35v7c0 0.27 0.23 0.5 0.5 0.5a0.5 0.5 0 0 0 0.35 -0.15l3.5-3.5a0.5 0.5 0 0 0 0.15 -0.35z"/></defs><use xlink:href="#arrow-right-black-a" transform="translate(-923 -1157)" fill="#111"/></svg><svg xmlns:xlink="http://www.w3.org/1999/xlink" width="8" height="11" id="arrow-right-white" y="11"><defs><path id="arrow-right-white-a" d="m1527.5 4419a0.5 0.5 0 0 0 -0.15 -0.35l-3.5-3.5a0.5 0.5 0 0 0 -0.35 -0.15 0.5 0.5 0 0 0 -0.5 0.5v7c0 0.27 0.23 0.5 0.5 0.5a0.5 0.5 0 0 0 0.35 -0.15l3.5-3.5a0.5 0.5 0 0 0 0.15 -0.35z"/></defs><g transform="translate(-1521 -4413)"><use xlink:href="#arrow-right-white-a" fill="#111"/><use xlink:href="#arrow-right-white-a" fill="#fff"/></g></svg><svg xmlns:xlink="http://www.w3.org/1999/xlink" width="24" height="16" id="behance" y="22"><defs><path id="behance-a" d="m665.56 4905h-5.13v1.24h5.13zm-4.62 6.23c0.04-0.6 0.25-1.08 0.62-1.43 0.38-0.35 0.87-0.52 1.47-0.52 1.22 0 1.89 0.65 2.01 1.95zm0.58 3.31a2.4 2.4 0 0 1 -0.58 -1.72h6.61l0.02-0.47c0-0.92-0.17-1.75-0.5-2.5a4.21 4.21 0 0 0 -3.96 -2.47c-1.38 0-2.5 0.46-3.38 1.38a4.84 4.84 0 0 0 -1.3 3.47c0 1.44 0.41 2.6 1.26 3.48a4.52 4.52 0 0 0 3.42 1.33c2.2 0 3.62-1.03 4.3-3.08h-2.23c-0.11 0.36-0.37 0.66-0.76 0.87-0.4 0.21-0.8 0.32-1.23 0.32-0.73 0-1.29-0.2-1.67-0.6zm-11.74-3.38h3.04c1.33 0 2 0.6 2 1.81 0 1.12-0.7 1.68-2.06 1.68h-2.98zm0-4.86h2.61c1.28 0 1.91 0.48 1.91 1.45 0 0.51-0.15 0.9-0.45 1.14s-0.72 0.37-1.25 0.37h-2.82zm-2.78 10.5h6.14c0.47 0 0.91-0.04 1.34-0.13s0.84-0.23 1.22-0.42c0.38-0.2 0.71-0.44 0.99-0.72s0.5-0.62 0.66-1.04c0.16-0.4 0.25-0.87 0.25-1.37 0-0.8-0.2-1.5-0.59-2.05a3.01 3.01 0 0 0 -1.72 -1.15c1.15-0.55 1.72-1.43 1.72-2.64 0-0.61-0.1-1.13-0.31-1.55a2.24 2.24 0 0 0 -0.9 -0.97c-0.4-0.22-0.82-0.38-1.28-0.48-0.45-0.1-0.97-0.14-1.55-0.14h-5.97z"/></defs><use xlink:href="#behance-a" transform="translate(-645 -4903)" fill="#0065f8"/></svg><svg xmlns:xlink="http://www.w3.org/1999/xlink" width="15" height="13" id="comment" y="38"><defs><path id="comment-a" d="m875.43 4113.9a0.83 0.83 0 0 0 -0.6 0.25 0.83 0.83 0 0 0 -0.26 0.6c0 0.24 0.09 0.44 0.25 0.61 0.17 0.17 0.37 0.25 0.6 0.25 0.25 0 0.45-0.08 0.61-0.25a0.83 0.83 0 0 0 0.26 -0.6 0.83 0.83 0 0 0 -0.26 -0.61 0.83 0.83 0 0 0 -0.6 -0.25zm2.57 0a0.83 0.83 0 0 0 -0.6 0.25 0.83 0.83 0 0 0 -0.26 0.6c0 0.24 0.09 0.44 0.25 0.61 0.17 0.17 0.37 0.25 0.61 0.25s0.44-0.08 0.6-0.25a0.83 0.83 0 0 0 0.26 -0.6 0.83 0.83 0 0 0 -0.25 -0.61 0.83 0.83 0 0 0 -0.61 -0.25zm2.57 0a0.83 0.83 0 0 0 -0.6 0.25 0.83 0.83 0 0 0 -0.26 0.6c0 0.24 0.09 0.44 0.26 0.61 0.16 0.17 0.36 0.25 0.6 0.25s0.44-0.08 0.6-0.25a0.83 0.83 0 0 0 0.26 -0.6 0.83 0.83 0 0 0 -0.25 -0.61 0.83 0.83 0 0 0 -0.6 -0.25zm1.87-0.85c0.47 0.52 0.7 1.1 0.7 1.7 0 0.62-0.23 1.19-0.7 1.71a4.8 4.8 0 0 1 -1.89 1.26 6.94 6.94 0 0 1 -3.42 0.4l-0.38-0.03-0.29 0.25a6.6 6.6 0 0 1 -1.84 1.15c0.2-0.36 0.36-0.75 0.47-1.15l0.18-0.65-0.58-0.33a4.08 4.08 0 0 1 -1.35 -1.18 2.44 2.44 0 0 1 -0.48 -1.43c0-0.6 0.23-1.18 0.7-1.7a4.8 4.8 0 0 1 1.89 -1.26c0.79-0.3 1.64-0.46 2.55-0.46s1.76 0.15 2.55 0.46c0.8 0.31 1.43 0.73 1.9 1.26zm1.08 0.04a4.57 4.57 0 0 0 -1.27 -1.37 6.52 6.52 0 0 0 -1.92 -0.91 7.97 7.97 0 0 0 -6.58 0.91c-0.53 0.38-0.96 0.84-1.27 1.37a3.19 3.19 0 0 0 0.13 3.55c0.4 0.58 0.95 1.07 1.65 1.47a4.27 4.27 0 0 1 -0.78 1.5 68.68 68.68 0 0 0 -0.54 0.61l-0.04 0.06-0.03 0.07-0.01 0.06v0.09c0.02 0.08 0.06 0.14 0.11 0.18 0.05 0.05 0.11 0.07 0.18 0.07h0.04a7.32 7.32 0 0 0 3.84 -1.77 7.78 7.78 0 0 0 3.98 -0.52c0.92-0.37 1.65-0.9 2.19-1.55 0.53-0.66 0.8-1.38 0.8-2.16 0-0.58-0.16-1.13-0.48-1.66z"/></defs><use xlink:href="#comment-a" transform="translate(-870 -4109)" fill="#252525"/></svg><svg xmlns:xlink="http://www.w3.org/1999/xlink" width="15" height="15" id="data" y="51"><defs><path id="data-a" d="m382.86 4117.9h1.93v1.93h-1.93zm2.35 0h2.15v1.93h-2.15zm-2.35-2.57h1.93v2.14h-1.93zm2.35 0h2.15v2.14h-2.15zm-2.35-2.36h1.93v1.93h-1.93zm4.93 4.93h2.14v1.93h-2.14zm-2.58-4.93h2.15v1.93h-2.15zm5.15 4.93h1.93v1.93h-1.93zm-2.57-2.57h2.14v2.14h-2.14zm-2.43-3.5a0.2 0.2 0 0 1 -0.15 0.07h-0.42a0.2 0.2 0 0 1 -0.15 -0.07 0.2 0.2 0 0 1 -0.07 -0.15v-1.92c0-0.06 0.02-0.11 0.07-0.16a0.2 0.2 0 0 1 0.15 -0.06h0.42c0.06 0 0.11 0.02 0.15 0.06 0.05 0.05 0.07 0.1 0.07 0.16v1.92a0.2 0.2 0 0 1 -0.07 0.15zm5 3.5h1.93v2.14h-1.93zm-2.57-2.36h2.14v1.93h-2.14zm2.57 0h1.93v1.93h-1.93zm0.15-1.14a0.2 0.2 0 0 1 -0.15 0.07h-0.43a0.2 0.2 0 0 1 -0.15 -0.07 0.2 0.2 0 0 1 -0.07 -0.15v-1.92c0-0.06 0.03-0.11 0.07-0.16a0.2 0.2 0 0 1 0.15 -0.06h0.43c0.06 0 0.1 0.02 0.15 0.06 0.04 0.05 0.06 0.1 0.06 0.16v1.92a0.2 0.2 0 0 1 -0.06 0.15zm2.38-1.18a0.82 0.82 0 0 0 -0.6 -0.25h-0.86v-0.64c0-0.3-0.1-0.55-0.32-0.76a1.03 1.03 0 0 0 -0.75 -0.32h-0.43c-0.3 0-0.55 0.1-0.76 0.32-0.2 0.2-0.31 0.46-0.31 0.76v0.64h-2.57v-0.64c0-0.3-0.1-0.55-0.32-0.76a1.03 1.03 0 0 0 -0.76 -0.32h-0.42c-0.3 0-0.55 0.1-0.76 0.32-0.21 0.2-0.32 0.46-0.32 0.76v0.64h-0.85a0.82 0.82 0 0 0 -0.6 0.25 0.82 0.82 0 0 0 -0.26 0.6v8.58c0 0.23 0.08 0.43 0.25 0.6s0.37 0.25 0.6 0.25h9.44c0.23 0 0.43-0.08 0.6-0.25a0.82 0.82 0 0 0 0.25 -0.6v-8.57a0.82 0.82 0 0 0 -0.25 -0.6z"/></defs><use xlink:href="#data-a" transform="translate(-380 -4107)" fill="#252525"/></svg><svg xmlns:xlink="http://www.w3.org/1999/xlink" width="12" height="20" id="facebook" y="66"><defs><path id="facebook-a" d="m418.34 4901.6a3.8 3.8 0 0 0 -2.78 1.03 3.88 3.88 0 0 0 -1.04 2.9v2.19h-2.57v2.97h2.57v7.63h3.07v-7.63h2.55l0.4-2.97h-2.95v-1.9c0-0.48 0.1-0.84 0.3-1.08 0.2-0.25 0.59-0.37 1.17-0.37h1.57v-2.65c-0.54-0.08-1.3-0.12-2.29-0.12z"/></defs><use xlink:href="#facebook-a" transform="translate(-410 -4900)" fill="#fff"/></svg><svg xmlns:xlink="http://www.w3.org/1999/xlink" width="31" height="27" id="free-shiping" y="86"><defs><path id="free-shiping-a" d="m400.57 799c-0.58 0-1.08-0.21-1.5-0.64a2.06 2.06 0 0 1 -0.64 -1.5c0-0.58 0.21-1.09 0.63-1.51 0.43-0.42 0.93-0.64 1.51-0.64s1.08 0.22 1.5 0.64c0.43 0.42 0.64 0.93 0.64 1.5 0 0.59-0.2 1.09-0.63 1.51-0.43 0.43-0.93 0.64-1.5 0.64zm-4.28-11.22a0.5 0.5 0 0 1 0.15 -0.37l3.26-3.26a0.5 0.5 0 0 1 0.37 -0.15h2.64v4.29h-6.42zm19.28 11.22c-0.58 0-1.08-0.21-1.5-0.64a2.06 2.06 0 0 1 -0.64 -1.5c0-0.58 0.21-1.09 0.63-1.51 0.43-0.42 0.93-0.64 1.51-0.64s1.08 0.22 1.5 0.64c0.43 0.42 0.64 0.93 0.64 1.5 0 0.59-0.2 1.09-0.63 1.51-0.43 0.43-0.93 0.64-1.5 0.64zm6.11-21.11a1.03 1.03 0 0 0 -0.75 -0.32h-17.14c-0.3 0-0.55 0.1-0.76 0.32-0.21 0.21-0.32 0.46-0.32 0.75v3.22h-2.67c-0.3 0-0.63 0.07-0.98 0.21-0.36 0.15-0.64 0.33-0.85 0.54l-3.31 3.32a3.04 3.04 0 0 0 -0.61 1.01c-0.06 0.15-0.1 0.36-0.11 0.62a15.65 15.65 0 0 0 -0.05 1.21l0.01 0.59v5.35c-0.29 0-0.54 0.11-0.75 0.32s-0.32 0.47-0.32 0.76c0 0.16 0.02 0.31 0.07 0.44 0.04 0.13 0.12 0.23 0.22 0.3l0.28 0.2c0.08 0.05 0.21 0.09 0.4 0.1l0.37 0.04a4.74 4.74 0 0 0 0.8 -0.01h1.08c0 1.18 0.41 2.19 1.25 3.03a4.13 4.13 0 0 0 3.03 1.25c1.18 0 2.2-0.42 3.03-1.25a4.13 4.13 0 0 0 1.26 -3.03h6.43c0 1.18 0.41 2.19 1.25 3.03a4.13 4.13 0 0 0 3.03 1.25c1.18 0 2.2-0.42 3.03-1.25a4.13 4.13 0 0 0 1.26 -3.03 25.88 25.88 0 0 1 0.8 0l0.38-0.03a0.92 0.92 0 0 0 0.4 -0.1l0.27-0.2c0.1-0.07 0.18-0.17 0.22-0.3 0.05-0.13 0.07-0.28 0.07-0.44v-17.15c0-0.29-0.1-0.54-0.32-0.75z"/></defs><use xlink:href="#free-shiping-a" transform="translate(-392 -776)" fill="#252525"/></svg><svg xmlns:xlink="http://www.w3.org/1999/xlink" width="27" height="17" id="google" y="113"><defs><path id="google-a" d="m611.31 4909.5a7.76 7.76 0 0 1 -0.75 4.95 6.3 6.3 0 0 1 -2.5 2.54 7.37 7.37 0 0 1 -3.7 0.92 7.37 7.37 0 0 1 -5.21 -2.15 7.37 7.37 0 0 1 -1.57 -8.07 7.37 7.37 0 0 1 6.78 -4.5c1.92 0 3.56 0.64 4.93 1.93l-2 1.92a4.06 4.06 0 0 0 -2.93 -1.14 4.58 4.58 0 0 0 -4.56 4.65 4.62 4.62 0 0 0 7.24 3.84 4.19 4.19 0 0 0 1.29 -1.62c0.1-0.26 0.17-0.5 0.21-0.74h-4.18v-2.53zm8.83 0v2.1h-2.1v2.1h-2.1v-2.1h-2.1v-2.1h2.1v-2.1h2.1v2.1z"/></defs><use xlink:href="#google-a" transform="translate(-595 -4902)" fill="#fff"/></svg><svg xmlns:xlink="http://www.w3.org/1999/xlink" width="19" height="19" id="instagram" y="130"><defs><path id="instagram-a" d="m508.71 4913.1c-0.7 0-1.31-0.25-1.81-0.75s-0.76-1.1-0.76-1.82c0-0.7 0.25-1.31 0.76-1.82 0.5-0.5 1.1-0.75 1.81-0.75s1.32 0.25 1.82 0.75 0.76 1.11 0.76 1.82-0.26 1.32-0.76 1.82-1.1 0.75-1.82 0.75zm0-6.53c-1.1 0-2.03 0.39-2.8 1.16a3.82 3.82 0 0 0 -1.15 2.8c0 1.1 0.38 2.03 1.15 2.8s1.7 1.16 2.8 1.16 2.04-0.39 2.8-1.16a3.82 3.82 0 0 0 1.16 -2.8c0-1.1-0.38-2.03-1.15-2.8a3.82 3.82 0 0 0 -2.8 -1.16zm4.12-1.08c-0.25 0-0.47 0.09-0.65 0.27a0.89 0.89 0 0 0 -0.27 0.65c0 0.26 0.09 0.47 0.27 0.66 0.18 0.18 0.4 0.27 0.65 0.27 0.26 0 0.47-0.1 0.66-0.27 0.18-0.19 0.27-0.4 0.27-0.66a0.89 0.89 0 0 0 -0.27 -0.65 0.89 0.89 0 0 0 -0.66 -0.27zm-2.29-1.3l0.97 0.04c0.4 0.02 0.75 0.05 1.04 0.1a2.6 2.6 0 0 1 2.18 1.65c0.07 0.2 0.14 0.43 0.19 0.72 0.05 0.28 0.08 0.63 0.1 1.03a38.38 38.38 0 0 1 0.02 2.8 203.61 203.61 0 0 0 0 1.83c0 0.24 0 0.56-0.02 0.97-0.02 0.4-0.05 0.75-0.1 1.03-0.05 0.29-0.12 0.53-0.19 0.72a2.6 2.6 0 0 1 -1.47 1.47c-0.19 0.07-0.43 0.13-0.71 0.18-0.29 0.05-0.63 0.09-1.04 0.1a37.35 37.35 0 0 1 -2.8 0.03 200.3 200.3 0 0 0 -1.82 0c-0.24 0-0.57 0-0.97-0.03-0.4-0.01-0.75-0.05-1.04-0.1a4.02 4.02 0 0 1 -0.72 -0.18 2.6 2.6 0 0 1 -1.46 -1.47c-0.08-0.2-0.14-0.43-0.19-0.72a7.95 7.95 0 0 1 -0.1 -1.03 36.74 36.74 0 0 1 -0.02 -2.8 285.92 285.92 0 0 0 0 -1.83c0-0.24 0-0.56 0.02-0.97 0.02-0.4 0.05-0.75 0.1-1.03 0.05-0.29 0.11-0.52 0.19-0.72a2.6 2.6 0 0 1 1.46 -1.47c0.2-0.07 0.44-0.13 0.72-0.18 0.29-0.05 0.63-0.08 1.04-0.1a38.75 38.75 0 0 1 2.8 -0.03 200.65 200.65 0 0 0 1.82 0zm4.6-0.08a4.71 4.71 0 0 0 -3.24 -1.24c-0.6-0.04-1.65-0.05-3.19-0.05-1.53 0-2.6 0.01-3.18 0.05-1.4 0.06-2.47 0.48-3.23 1.24a4.71 4.71 0 0 0 -1.25 3.24c-0.03 0.59-0.05 1.65-0.05 3.18s0.02 2.6 0.05 3.19c0.07 1.39 0.48 2.47 1.25 3.23a4.71 4.71 0 0 0 3.23 1.25c0.59 0.03 1.65 0.05 3.18 0.05 1.54 0 2.6-0.02 3.19-0.05a4.71 4.71 0 0 0 3.23 -1.25 4.71 4.71 0 0 0 1.25 -3.23c0.03-0.6 0.05-1.66 0.05-3.19s-0.02-2.6-0.05-3.18a4.71 4.71 0 0 0 -1.25 -3.24z"/></defs><use xlink:href="#instagram-a" transform="translate(-499 -4901)" fill="#fff"/></svg><svg xmlns:xlink="http://www.w3.org/1999/xlink" width="36" height="29" id="payment" y="149"><defs><path id="payment-a" d="m1321.5 775.43c0.74 0 1.37 0.26 1.9 0.79 0.52 0.52 0.78 1.15 0.78 1.89v20.35c0 0.74-0.26 1.37-0.78 1.9-0.53 0.52-1.16 0.78-1.9 0.78h-26.78c-0.74 0-1.37-0.26-1.9-0.78a2.58 2.58 0 0 1 -0.78 -1.9v-20.35c0-0.74 0.26-1.37 0.79-1.9a2.58 2.58 0 0 1 1.89 -0.78zm-26.78 2.14a0.52 0.52 0 0 0 -0.38 0.16c-0.1 0.1-0.16 0.23-0.16 0.38v3.75h27.9v-3.75a0.52 0.52 0 0 0 -0.16 -0.38 0.52 0.52 0 0 0 -0.38 -0.16zm26.78 21.43c0.15 0 0.27-0.05 0.38-0.16 0.1-0.1 0.16-0.23 0.16-0.38v-10.16h-27.86v10.17a0.546 0.546 0 0 0 0.54 0.54zm-25.17-2.14v-2.15h4.28v2.15zm6.42 0v-2.15h6.43v2.15z"/></defs><use xlink:href="#payment-a" transform="translate(-1290 -774)" fill="#252525"/></svg><svg xmlns:xlink="http://www.w3.org/1999/xlink" width="36" height="22" id="return" y="178"><defs><path id="return-a" d="m1013.3 798.11c0.08 0.13 0.12 0.24 0.12 0.35 0 0.15-0.05 0.27-0.16 0.38-0.1 0.1-0.23 0.16-0.38 0.16h-16.07a0.66 0.66 0 0 1 -0.22 -0.03 0.3 0.3 0 0 1 -0.16 -0.12l-0.09-0.13a0.48 0.48 0 0 1 -0.05 -0.2l-0.01-0.19v-10.04h-3.22c-0.29 0-0.54-0.11-0.75-0.32a1.03 1.03 0 0 1 -0.32 -0.76 1 1 0 0 1 0.25 -0.68l5.36-6.43c0.21-0.25 0.48-0.37 0.82-0.37 0.33 0 0.6 0.12 0.82 0.37l5.36 6.43a1 1 0 0 1 0.25 0.68c0 0.3-0.1 0.55-0.32 0.76-0.21 0.2-0.46 0.32-0.75 0.32h-3.22v6.42h9.64c0.18 0 0.32 0.07 0.42 0.19zm10.83-6.61a1 1 0 0 1 -0.25 0.69l-5.36 6.42c-0.22 0.26-0.5 0.39-0.82 0.39s-0.6-0.13-0.82-0.39l-5.35-6.42a1 1 0 0 1 -0.25 -0.69c0-0.29 0.1-0.54 0.31-0.75 0.22-0.22 0.47-0.32 0.76-0.32h3.21v-6.43h-9.64a0.5 0.5 0 0 1 -0.42 -0.2l-2.68-3.22a0.53 0.53 0 0 1 0.04 -0.7 0.5 0.5 0 0 1 0.38 -0.17h16.07c0.1 0 0.17 0.02 0.23 0.04s0.1 0.06 0.15 0.11l0.09 0.14c0.02 0.03 0.04 0.1 0.05 0.2l0.02 0.18v10.05h3.21c0.3 0 0.54 0.1 0.75 0.32 0.22 0.2 0.32 0.46 0.32 0.75z"/></defs><use xlink:href="#return-a" transform="translate(-990 -778)" fill="#252525"/></svg><svg xmlns:xlink="http://www.w3.org/1999/xlink" width="18" height="18" id="search" y="200"><defs><path id="search-a" d="m1375.3 77.72a4 4 0 1 1 -8 -0.01 4 4 0 0 1 8 0zm4.57 7.42c0-0.3-0.12-0.6-0.33-0.8l-3.06-3.06a6.27 6.27 0 0 0 -5.18 -9.85 6.28 6.28 0 1 0 3.57 11.46l3.06 3.06a1.14 1.14 0 0 0 1.94 -0.81z"/></defs><use xlink:href="#search-a" transform="translate(-1363 -70)" fill="#464646"/></svg><svg xmlns:xlink="http://www.w3.org/1999/xlink" width="22" height="19" id="shopping-cart" y="218"><defs><path id="shopping-cart-a" d="m1502.3 78.29c0 0.63-0.5 1.14-1.14 1.14h-0.14l-1.02 5.9c-0.1 0.55-0.57 0.95-1.13 0.95h-11.42c-0.56 0-1.03-0.4-1.13-0.94l-1.02-5.91h-0.14a1.14 1.14 0 1 1 0 -2.28h16c0.63 0 1.14 0.5 1.14 1.14zm-13.42 5.38l-0.29-3.71a0.58 0.58 0 0 0 -0.62 -0.53 0.58 0.58 0 0 0 -0.52 0.62l0.28 3.7c0.03 0.3 0.28 0.54 0.57 0.54h0.05c0.31-0.03 0.55-0.3 0.53-0.62zm3.1-3.67a0.58 0.58 0 0 0 -0.57 -0.57 0.58 0.58 0 0 0 -0.57 0.57v3.71c0 0.32 0.25 0.58 0.57 0.58 0.3 0 0.57-0.26 0.57-0.58zm3.43 0a0.58 0.58 0 0 0 -0.58 -0.57 0.58 0.58 0 0 0 -0.57 0.57v3.71c0 0.32 0.26 0.58 0.57 0.58 0.32 0 0.58-0.26 0.58-0.58zm3.42 0.05a0.58 0.58 0 0 0 -0.52 -0.62 0.58 0.58 0 0 0 -0.62 0.53l-0.28 3.7c-0.03 0.32 0.2 0.6 0.52 0.63h0.05c0.3 0 0.54-0.24 0.57-0.53zm-11.43-3.48h-1.18l0.9-3.93a2.27 2.27 0 0 1 2.22 -1.78h1.5c0-0.31 0.25-0.57 0.57-0.57h3.42c0.32 0 0.58 0.26 0.58 0.57h1.49c1.07 0 1.99 0.73 2.22 1.78l0.9 3.93h-1.18l-0.83-3.67c-0.12-0.53-0.58-0.9-1.11-0.9h-1.5c0 0.32-0.25 0.57-0.57 0.57h-3.42a0.58 0.58 0 0 1 -0.57 -0.57h-1.5c-0.53 0-0.99 0.37-1.11 0.9z"/></defs><use xlink:href="#shopping-cart-a" transform="translate(-1482 -69)" fill="#464646"/></svg><svg xmlns:xlink="http://www.w3.org/1999/xlink" width="14" height="15" id="star-grey" y="237"><defs><path id="star-grey-a" d="m641.8 2033.2c0-0.22-0.23-0.3-0.4-0.33l-3.52-0.51-1.59-3.2c-0.06-0.14-0.18-0.29-0.34-0.29s-0.28 0.15-0.34 0.29l-1.59 3.2-3.53 0.51c-0.17 0.03-0.39 0.11-0.39 0.32 0 0.13 0.1 0.25 0.18 0.34l2.56 2.5-0.61 3.5-0.01 0.15c0 0.18 0.09 0.35 0.3 0.35a0.6 0.6 0 0 0 0.27 -0.09l3.16-1.66 3.16 1.66c0.08 0.05 0.18 0.09 0.28 0.09 0.2 0 0.29-0.17 0.29-0.35l-0.01-0.14-0.6-3.52 2.55-2.49c0.09-0.09 0.18-0.2 0.18-0.34z"/></defs><use xlink:href="#star-grey-a" transform="translate(-629 -2027)" fill="#b7b7b7"/></svg><svg xmlns:xlink="http://www.w3.org/1999/xlink" width="15" height="15" id="star-yellow" y="252"><defs><path id="star-yellow-a" d="m613.4 2033.2c0-0.22-0.23-0.3-0.4-0.33l-3.52-0.51-1.59-3.2c-0.06-0.14-0.18-0.29-0.34-0.29s-0.28 0.15-0.34 0.29l-1.59 3.2-3.53 0.51c-0.17 0.03-0.39 0.11-0.39 0.32 0 0.13 0.1 0.25 0.18 0.34l2.56 2.5-0.61 3.5-0.01 0.15c0 0.18 0.09 0.35 0.3 0.35a0.6 0.6 0 0 0 0.27 -0.09l3.16-1.66 3.16 1.66c0.08 0.05 0.18 0.09 0.28 0.09 0.2 0 0.29-0.17 0.29-0.35l-0.01-0.14-0.6-3.52 2.55-2.49c0.09-0.09 0.18-0.2 0.18-0.34z"/></defs><g transform="translate(-600 -2027)"><use xlink:href="#star-yellow-a" fill="#b7b7b7"/><use xlink:href="#star-yellow-a" fill="#eecf00"/></g></svg><svg xmlns:xlink="http://www.w3.org/1999/xlink" width="33" height="33" id="support" y="267"><defs><path id="support-a" d="m701.17 774.47c1.86-0.79 3.8-1.18 5.83-1.18a15.08 15.08 0 0 1 10.61 4.39 15.08 15.08 0 0 1 0 21.22 15.07 15.07 0 0 1 -21.22 0 15.06 15.06 0 0 1 0 -21.23 15.08 15.08 0 0 1 4.78 -3.2zm11.87 2.46a12.8 12.8 0 0 0 -12.08 0l3.24 3.25a8.6 8.6 0 0 1 5.6 0zm-17.4 17.4l3.26-3.25a8.6 8.6 0 0 1 0 -5.59l-3.25-3.25a12.8 12.8 0 0 0 0 12.09zm5.32 5.3a12.8 12.8 0 0 0 12.08 0l-3.24-3.24a8.6 8.6 0 0 1 -5.6 0zm1.5-6.8a6.2 6.2 0 0 0 4.54 1.88 6.2 6.2 0 0 0 4.55 -1.88 6.2 6.2 0 0 0 1.88 -4.54 6.2 6.2 0 0 0 -1.88 -4.55 6.2 6.2 0 0 0 -4.55 -1.88 6.2 6.2 0 0 0 -4.55 1.88 6.2 6.2 0 0 0 -1.88 4.55 6.2 6.2 0 0 0 1.88 4.54zm12.64-1.75l3.25 3.25a12.8 12.8 0 0 0 0 -12.09l-3.25 3.25a8.6 8.6 0 0 1 0 5.6z"/></defs><use xlink:href="#support-a" transform="translate(-690 -772)" fill="#252525"/></svg><svg xmlns:xlink="http://www.w3.org/1999/xlink" width="19" height="15" id="twitter" y="300"><defs><path id="twitter-a" d="m465.4 4906.2a3.15 3.15 0 0 0 1.43 -1.79c-0.64 0.39-1.33 0.65-2.06 0.79a3.13 3.13 0 0 0 -2.37 -1.03c-0.9 0-1.66 0.32-2.3 0.95-0.63 0.63-0.94 1.4-0.94 2.3 0 0.24 0.02 0.49 0.08 0.74a9.2 9.2 0 0 1 -6.69 -3.4c-0.3 0.5-0.45 1.05-0.45 1.64a3.24 3.24 0 0 0 1.45 2.7 3.22 3.22 0 0 1 -1.47 -0.4v0.03c0 0.79 0.25 1.47 0.74 2.07 0.5 0.59 1.12 0.96 1.87 1.12a3.35 3.35 0 0 1 -1.47 0.06c0.2 0.65 0.59 1.18 1.14 1.6 0.56 0.42 1.19 0.63 1.9 0.65a6.35 6.35 0 0 1 -4.82 1.34 9.48 9.48 0 0 0 8.23 0.9 8.26 8.26 0 0 0 2.59 -1.45 9.81 9.81 0 0 0 3.01 -4.61 9.22 9.22 0 0 0 0.38 -3.03 6.8 6.8 0 0 0 1.62 -1.68c-0.62 0.27-1.24 0.43-1.87 0.5z"/></defs><use xlink:href="#twitter-a" transform="translate(-450 -4903)" fill="#fff"/></svg><svg xmlns:xlink="http://www.w3.org/1999/xlink" width="19" height="19" id="user" y="315"><defs><path id="user-a" d="m1420 78.29a8 8 0 1 1 -16 -0.01 8 8 0 0 1 16 0zm-1.15 0a6.87 6.87 0 0 0 -6.85 -6.86 6.87 6.87 0 0 0 -5.53 10.92c0.32-1.6 1.1-2.92 2.73-2.92a3.99 3.99 0 0 0 5.6 0c1.63 0 2.4 1.32 2.72 2.92a6.9 6.9 0 0 0 1.33 -4.06zm-3.42-1.72a3.43 3.43 0 1 1 -6.86 0 3.43 3.43 0 0 1 6.86 0z"/></defs><use xlink:href="#user-a" transform="translate(-1402 -69)" fill="#464646"/></svg><svg xmlns:xlink="http://www.w3.org/1999/xlink" width="20" height="20" id="view" y="334"><defs><path id="view-a" d="m559.19 1933.4a0.31 0.31 0 0 0 -0.23 -0.1h-2.25v-2.24a0.3 0.3 0 0 0 -0.1 -0.23 0.31 0.31 0 0 0 -0.22 -0.1h-0.64a0.3 0.3 0 0 0 -0.23 0.1 0.3 0.3 0 0 0 -0.1 0.23v2.25h-2.24a0.3 0.3 0 0 0 -0.23 0.1 0.3 0.3 0 0 0 -0.1 0.22v0.64c0 0.09 0.04 0.16 0.1 0.23 0.07 0.06 0.14 0.1 0.23 0.1h2.25v2.24c0 0.09 0.03 0.16 0.1 0.23 0.06 0.06 0.13 0.1 0.22 0.1h0.64a0.3 0.3 0 0 0 0.23 -0.1 0.3 0.3 0 0 0 0.1 -0.23v-2.25h2.24a0.3 0.3 0 0 0 0.23 -0.1 0.3 0.3 0 0 0 0.1 -0.22v-0.64a0.31 0.31 0 0 0 -0.1 -0.23zm-3.12 5.05c-1.24 0-2.3-0.44-3.18-1.32a4.33 4.33 0 0 1 -1.32 -3.18c0-1.24 0.44-2.3 1.32-3.18a4.33 4.33 0 0 1 3.18 -1.32c1.24 0 2.3 0.44 3.18 1.32a4.33 4.33 0 0 1 1.32 3.18c0 1.24-0.44 2.3-1.32 3.18a4.33 4.33 0 0 1 -3.18 1.32zm5.83-0.5a6.88 6.88 0 0 0 1.24 -4 7.08 7.08 0 0 0 -4.32 -6.51 6.95 6.95 0 0 0 -5.5 0 7.07 7.07 0 0 0 -3.76 3.76 6.95 6.95 0 0 0 0 5.5 7.07 7.07 0 0 0 3.76 3.76c0.88 0.37 1.8 0.56 2.75 0.56 1.47 0 2.81-0.42 4-1.25l3.45 3.44c0.25 0.25 0.55 0.38 0.9 0.38 0.36 0 0.67-0.12 0.92-0.38 0.25-0.25 0.37-0.55 0.37-0.9 0-0.36-0.12-0.66-0.37-0.9z"/></defs><use xlink:href="#view-a" transform="translate(-547 -1925)" fill="#31353d"/></svg><svg xmlns:xlink="http://www.w3.org/1999/xlink" width="19" height="17" id="wishlist" y="354"><defs><path id="wishlist-a" d="m1459.8 75.6c0 1.64-1.65 3.16-1.67 3.19l-5.18 4.99-5.19-5c-0.02-0.02-1.67-1.54-1.67-3.17 0-2.5 1.7-3.04 3.13-3.04 1.33 0 2.83 1.44 3.3 2 0.2 0.25 0.65 0.25 0.87 0 0.46-0.56 1.96-2 3.29-2 1.43 0 3.12 0.53 3.12 3.04zm1.15 0c0-2.6-1.6-4.17-4.27-4.17-1.56 0-3.03 1.23-3.73 1.93-0.7-0.7-2.17-1.93-3.73-1.93-2.67 0-4.27 1.56-4.27 4.18 0 2.14 1.96 3.94 2.04 4l5.57 5.37a0.55 0.55 0 0 0 0.79 0l5.55-5.35c0.08-0.08 2.05-1.88 2.05-4.02z"/></defs><use xlink:href="#wishlist-a" transform="translate(-1443 -70)" fill="#464646"/></svg><svg xmlns:xlink="http://www.w3.org/1999/xlink" width="21" height="15" id="youtube" y="371"><defs><path id="youtube-a" d="m554.41 4914.3c-0.1 0.06-0.2 0.1-0.34 0.1a0.7 0.7 0 0 1 -0.31 -0.08 0.6 0.6 0 0 1 -0.33 -0.56v-6.43a0.6 0.6 0 0 1 0.33 -0.57 0.6 0.6 0 0 1 0.65 0.02l5.15 3.22c0.2 0.11 0.3 0.3 0.3 0.54 0 0.25-0.1 0.43-0.3 0.54zm10.5-6.64c-0.06-0.55-0.13-1.04-0.22-1.48-0.1-0.49-0.34-0.9-0.7-1.23a2.14 2.14 0 0 0 -1.25 -0.59 65.91 65.91 0 0 0 -6.74 -0.25c-3 0-5.25 0.09-6.74 0.25-0.48 0.06-0.9 0.25-1.25 0.59-0.35 0.33-0.58 0.74-0.69 1.23a19.64 19.64 0 0 0 -0.31 2.85 86 86 0 0 0 0 3.02 19.65 19.65 0 0 0 0.3 2.85c0.1 0.49 0.34 0.9 0.7 1.24 0.36 0.33 0.77 0.53 1.25 0.58 1.49 0.17 3.73 0.25 6.74 0.25 3 0 5.25-0.08 6.74-0.25 0.48-0.05 0.89-0.25 1.25-0.58 0.35-0.34 0.58-0.75 0.69-1.24a19.72 19.72 0 0 0 0.31 -2.85 87.12 87.12 0 0 0 0 -3.02c0-0.36-0.04-0.81-0.09-1.37z"/></defs><use xlink:href="#youtube-a" transform="translate(-545 -4903)" fill="#fff"/></svg></svg>
