<svg xmlns="http://www.w3.org/2000/svg" xmlns:xlink="http://www.w3.org/1999/xlink" width="14" height="15" viewBox="0 0 14 15"><defs><path id="31ria" d="M641.8 2033.2c0-.22-.23-.3-.4-.33l-3.52-.51-1.59-3.2c-.06-.14-.18-.29-.34-.29-.16 0-.28.15-.34.29l-1.59 3.2-3.53.51c-.17.03-.39.11-.39.32 0 .13.1.25.18.34l2.56 2.5-.61 3.5-.01.15c0 .18.09.35.3.35a.6.6 0 0 0 .27-.09l3.16-1.66 3.16 1.66c.08.05.18.09.28.09.2 0 .29-.17.29-.35l-.01-.14-.6-3.52 2.55-2.49c.09-.09.18-.2.18-.34z"/></defs><g><g transform="translate(-629 -2027)"><use fill="#b7b7b7" xlink:href="#31ria"/></g></g></svg>