<svg xmlns="http://www.w3.org/2000/svg" xmlns:xlink="http://www.w3.org/1999/xlink" width="20" height="20" viewBox="0 0 20 20"><defs><path id="fbu7a" d="M559.19 1933.38a.31.31 0 0 0-.23-.1h-2.25v-2.24a.3.3 0 0 0-.1-.23.31.31 0 0 0-.22-.1h-.64a.3.3 0 0 0-.23.1.3.3 0 0 0-.1.23v2.25h-2.24a.3.3 0 0 0-.23.1.3.3 0 0 0-.1.22v.64c0 .09.04.16.1.23.07.06.14.1.23.1h2.25v2.24c0 .09.03.16.1.23.06.06.13.1.22.1h.64a.3.3 0 0 0 .23-.1.3.3 0 0 0 .1-.23v-2.25h2.24a.3.3 0 0 0 .23-.1.3.3 0 0 0 .1-.22v-.64a.31.31 0 0 0-.1-.23zm-3.12 5.05c-1.24 0-2.3-.44-3.18-1.32a4.33 4.33 0 0 1-1.32-3.18c0-1.24.44-2.3 1.32-3.18a4.33 4.33 0 0 1 3.18-1.32c1.24 0 2.3.44 3.18 1.32a4.33 4.33 0 0 1 1.32 3.18c0 1.24-.44 2.3-1.32 3.18a4.33 4.33 0 0 1-3.18 1.32zm5.83-.5a6.88 6.88 0 0 0 1.24-4 7.08 7.08 0 0 0-4.32-6.51 6.95 6.95 0 0 0-5.5 0 7.07 7.07 0 0 0-3.76 3.76 6.95 6.95 0 0 0 0 5.5 7.07 7.07 0 0 0 3.76 3.76c.88.37 1.8.56 2.75.56 1.47 0 2.81-.42 4-1.25l3.45 3.44c.25.25.55.38.9.38.36 0 .67-.12.92-.38.25-.25.37-.55.37-.9 0-.36-.12-.66-.37-.9z"/></defs><g><g transform="translate(-547 -1925)"><use fill="#31353d" xlink:href="#fbu7a"/></g></g></svg>