<svg xmlns="http://www.w3.org/2000/svg" xmlns:xlink="http://www.w3.org/1999/xlink" width="19" height="17" viewBox="0 0 19 17"><defs><path id="th0ma" d="M1459.85 75.6c0 1.64-1.65 3.16-1.67 3.19l-5.18 4.99-5.19-5c-.02-.02-1.67-1.54-1.67-3.17 0-2.5 1.7-3.04 3.13-3.04 1.33 0 2.83 1.44 3.3 2 .2.25.65.25.87 0 .46-.56 1.96-2 3.29-2 1.43 0 3.12.53 3.12 3.04zm1.15 0c0-2.6-1.6-4.17-4.27-4.17-1.56 0-3.03 1.23-3.73 1.93-.7-.7-2.17-1.93-3.73-1.93-2.67 0-4.27 1.56-4.27 4.18 0 2.14 1.96 3.94 2.04 4l5.57 5.37a.55.55 0 0 0 .79 0l5.55-5.35c.08-.08 2.05-1.88 2.05-4.02z"/></defs><g><g transform="translate(-1443 -70)"><use fill="#464646" xlink:href="#th0ma"/></g></g></svg>